# xmcd CD database file
#
# Track frame offsets:
#	150
#	20837
#	40852
#
# Disc length: 829 seconds
#
# Revision: 0
# Processed by: cddbd v1.5.1PL0 Copyright (c) Steve Scherf et al.
# Submitted via: CDex 1.51
#
DISCID=1f033b03
DTITLE=TRIPLANE - スピードスター
DYEAR=2004
DGENRE=JPop
TTITLE0=スピードスター
TTITLE1=風
TTITLE2=セーター
EXTD=YEAR: 2004
EXTT0=
EXTT1=
EXTT2=
PLAYORDER=
